<svg height="496pt" viewBox="-1 0 496 496" width="496pt" xmlns="http://www.w3.org/2000/svg"><path d="m424.886719 391.761719-3.886719-15.523438 57.945312-14.484375v-9.753906h-56v-16h72v38.246094zm0 0"/><path d="m445.894531 280-42.664062-64h-36.285157v-40h52.941407l-32-64h-36.941407v-80h-16v80h-36.945312l-15.152344 30.296875-14.359375-38.296875h-37.542969v-104h-16v104h-37.546874l-14.359376 38.296875-15.152343-30.296875h-36.941407v-80h-16v80h-36.945312l-32 64h52.945312v40h-36.28125l-42.664062 64h78.945312v64h16v-64h18.582032l-6.398438 16h3.816406v48h16v-48h72v40h-6.25l-9.511718 38.054688 15.519531 3.882812 6.488281-25.9375h35.503906l6.488282 25.945312 15.519531-3.882812-9.511719-38.0625h-6.246094v-40h72v48h16v-48h3.816407l-3.816407-9.542969v-6.457031h16v64h16v-64zm-29.902343-16h-90.03125l-12.800782-32h81.503906zm-65.046876-48h-16v-40h16zm-43.058593-88h70.113281l16 32h-102.113281zm11.058593 48v40h-12.183593l-6.402344-16h-53.414063v-16h51.542969l-3-8zm-88 8v16h-16v-16zm-42.457031-64h68.910157l18 48h-104.910157zm10.457031 64v16h-53.417968l-6.398438 16h-12.183594v-40h23.453126l-3 8zm-131.058593-56h70.113281l16 32h-102.113281zm27.058593 48h16v40h-16zm-65.050781 88 21.335938-32h81.503906l-12.796875 32zm201.050781 72h-16v-40h16zm-100.183593-56 25.597656-64h133.167969l25.601562 64zm0 0"/><g fill="#f0bc5e"><path d="m230.945312 64 56-24-56-24zm0 0"/><path d="m350.945312 48v48l56-24zm0 0"/><path d="m110.945312 96 56-24-56-24zm0 0"/><path d="m294.945312 496h-144c-74.992187 0-136-61.007812-136-136v-24h144v32h131.054688l16-32h124.945312v24c0 74.992188-61.007812 136-136 136zm0 0"/></g><path d="m142.945312 448c-13.234374 0-24-10.769531-24-24s10.765626-24 24-24c13.230469 0 24 10.769531 24 24s-10.769531 24-24 24zm0-32c-4.410156 0-8 3.59375-8 8s3.589844 8 8 8c4.40625 0 8-3.59375 8-8s-3.59375-8-8-8zm0 0"/><path d="m222.945312 448c-13.234374 0-24-10.769531-24-24s10.765626-24 24-24c13.230469 0 24 10.769531 24 24s-10.769531 24-24 24zm0-32c-4.410156 0-8 3.59375-8 8s3.589844 8 8 8c4.40625 0 8-3.59375 8-8s-3.59375-8-8-8zm0 0"/><path d="m302.945312 448c-13.234374 0-24-10.769531-24-24s10.765626-24 24-24c13.230469 0 24 10.769531 24 24s-10.769531 24-24 24zm0-32c-4.410156 0-8 3.59375-8 8s3.589844 8 8 8c4.40625 0 8-3.59375 8-8s-3.59375-8-8-8zm0 0"/></svg>