<svg class="ldi-o5uju5" width="200px"  height="200px"  xmlns="http://www.w3.org/2000/svg" xmlns:xlink="http://www.w3.org/1999/xlink" viewBox="0 0 100 100" preserveAspectRatio="xMidYMid" style="background: none;"><!--?xml version="1.0" encoding="utf-8"?--><!--Generator: Adobe Illustrator 21.0.0, SVG Export Plug-In . SVG Version: 6.00 Build 0)--><svg version="1.1" id="圖層_1" xmlns="http://www.w3.org/2000/svg" xmlns:xlink="http://www.w3.org/1999/xlink" x="0px" y="0px" viewBox="0 0 100 100" style="transform-origin: 50px 50px 0px;" xml:space="preserve"><g style="transform-origin: 50px 50px 0px;"><g style="transform-origin: 50px 50px 0px; transform: scale(0.6);"><g style="transform-origin: 50px 50px 0px;"><g><style type="text/css" class="ld ld-breath" style="transform-origin: 50px 50px 0px; animation-duration: 1s; animation-delay: -1s; animation-direction: normal;">.st0{fill:#666666;} .st1{fill:#EBB885;} .st2{fill:#E0E0E0;} .st3{fill:#A0C8D7;} .st4{fill:#66503A;} .st5{fill:#ABBD81;} .st6{fill:#A0C8D7;stroke:#333333;stroke-width:2;stroke-miterlimit:10;} .st7{fill:#FFFFFF;} .st8{fill:#66503A;stroke:#333333;stroke-width:2;stroke-miterlimit:10;} .st9{fill:#E0E0E0;stroke:#333333;stroke-width:2;stroke-miterlimit:10;} .st10{fill:#03AFF3;} .st11{fill:none;stroke:#333333;stroke-width:5;stroke-linecap:round;stroke-miterlimit:10;} .st12{fill:#8C6239;} .st13{fill:#F5E6C8;} .st14{fill:#333333;} .st15{fill:#F47E60;} .st16{fill:#E15B64;} .st17{fill:none;stroke:#000000;stroke-width:6;stroke-miterlimit:10;} .st18{fill:#4A3827;} .st19{fill:none;stroke:#666666;stroke-width:5.8262;stroke-linecap:round;stroke-miterlimit:10;} .st20{fill:#77A4BD;} .st21{fill:#F8B26A;} .st22{fill:#849B87;} .st23{fill:none;} .st24{fill:#FFFFFF;stroke:#000000;stroke-width:4;stroke-miterlimit:10;} .st25{fill:none;stroke:#849B87;stroke-width:4;stroke-miterlimit:10;} .st26{fill:none;stroke:#849B87;stroke-width:4.1718;stroke-miterlimit:10;} .st27{fill:#C33737;} .st28{fill:#FFDC6C;stroke:#FFFFFF;stroke-width:2.4393;stroke-miterlimit:10;} .st29{stroke:#000000;stroke-width:3;stroke-miterlimit:10;} .st30{stroke:#000000;stroke-width:3;stroke-linecap:round;stroke-linejoin:round;stroke-miterlimit:10;} .st31{fill:#E0E0E0;stroke:#000000;stroke-width:3;stroke-miterlimit:10;} .st32{fill:#735441;} .st33{fill:#C8DC96;} .st34{fill:#F5E6C8;stroke:#C33737;stroke-width:6;stroke-miterlimit:10;} .st35{fill:#F5E6C8;stroke:#000000;stroke-width:4.2393;stroke-miterlimit:10;} .st36{fill:#F5E169;} .st37{fill:#FFDC6C;} .st38{fill:none;stroke:#000000;stroke-width:5.1342;stroke-miterlimit:10;} .st39{fill:none;stroke:#000000;stroke-width:4.908;stroke-miterlimit:10;} .st40{fill:none;stroke:#000000;stroke-width:5.0371;stroke-miterlimit:10;} .st41{fill:none;stroke:#000000;stroke-width:5.4333;stroke-miterlimit:10;} .st42{fill:none;stroke:#333333;stroke-width:4.308;stroke-miterlimit:10;} .st43{fill:#F8B26A;stroke:#333333;stroke-width:3;stroke-miterlimit:10;} .st44{fill:#FFFF00;stroke:#333333;stroke-width:3;stroke-miterlimit:10;} .st45{fill:#F8B26A;stroke:#F47E60;stroke-width:2.326;stroke-miterlimit:10;} .st46{fill:#333333;stroke:#333333;stroke-width:3;stroke-miterlimit:10;} .st47{fill:#8A8A8A;} .st48{fill:none;stroke:#333333;stroke-width:3;stroke-linecap:round;stroke-linejoin:round;stroke-miterlimit:10;} .st49{fill:none;stroke:#333333;stroke-width:2;stroke-linecap:round;stroke-linejoin:round;stroke-miterlimit:10;} .st50{fill:#983733;} .st51{fill:#D50D01;} .st52{fill:#81C927;} .st53{fill:#C33737;stroke:#333333;stroke-width:2;stroke-miterlimit:10;} .st54{fill:#F5E6C8;stroke:#333333;stroke-width:2;stroke-miterlimit:10;} .st55{fill:#FFFFFF;stroke:#333333;stroke-width:4;stroke-miterlimit:10;} .st56{fill:none;stroke:#E15B64;stroke-width:3;stroke-miterlimit:10;} .st57{fill:#FFFFFF;stroke:#333333;stroke-width:6;stroke-linecap:round;stroke-miterlimit:10;}</style><g class="ld ld-breath" style="transform-origin: 50px 50px 0px; animation-duration: 1s; animation-delay: -0.933333s; animation-direction: normal;"><path class="st2" d="M63.89,36.144H36.11l1.827-11.969c0.349-2.284,2.313-3.971,4.623-3.971h14.882c2.31,0,4.274,1.687,4.623,3.971 L63.89,36.144z" fill="rgb(224, 224, 224)" style="fill: rgb(224, 224, 224);"></path></g><g class="ld ld-breath" style="transform-origin: 50px 50px 0px; animation-duration: 1s; animation-delay: -0.866667s; animation-direction: normal;"><path class="st0" d="M76.562,59.07H50H23.438l4.024-25.249c0.362-2.27,2.32-3.941,4.618-3.941H67.92 c2.299,0,4.256,1.671,4.618,3.941L76.562,59.07z" fill="rgb(102, 102, 102)" style="fill: rgb(102, 102, 102);"></path></g><g class="ld ld-breath" style="transform-origin: 50px 50px 0px; animation-duration: 1s; animation-delay: -0.8s; animation-direction: normal;"><path class="st20" d="M90.181,73.425c-2.593,1.658-5.711,2.294-8.711,1.917c-1.889-0.237-3.73-0.873-5.364-1.917l-0.001,0.002 l-0.1-0.063l-1.145-0.667l-1.239,0.747l-0.012-0.019c-4.225,2.701-9.843,2.702-14.069,0.003l-0.136-0.083l-1.136-0.636L57.06,73.46 l-0.022-0.035c-4.226,2.702-9.847,2.702-14.075,0l-0.001,0.002l-0.1-0.063l-1.145-0.667l-1.239,0.747l-0.012-0.019 c-4.225,2.701-9.843,2.702-14.069,0.003l-0.136-0.083l-1.146-0.634l-1.209,0.73l-0.01-0.016c-1.633,1.044-3.475,1.68-5.364,1.918 c-2.999,0.377-6.118-0.26-8.711-1.918L7.5,77.053c2.806,1.796,6.042,2.744,9.357,2.744c0.857,0,1.707-0.071,2.547-0.196 c2.004-0.298,3.946-0.939,5.739-1.915c2.545,1.385,5.385,2.111,8.286,2.111s5.741-0.726,8.286-2.111 c2.545,1.385,5.385,2.111,8.286,2.111c2.901,0,5.742-0.726,8.287-2.111c2.545,1.385,5.385,2.111,8.286,2.111 s5.741-0.726,8.286-2.111c1.793,0.976,3.734,1.617,5.739,1.915c0.84,0.125,1.69,0.196,2.547,0.196c3.315,0,6.551-0.948,9.357-2.744 L90.181,73.425z" fill="rgb(119, 164, 189)" style="fill: rgb(119, 164, 189);"></path></g><g class="ld ld-breath" style="transform-origin: 50px 50px 0px; animation-duration: 1s; animation-delay: -0.733333s; animation-direction: normal;"><polygon class="st27" points="84.522,60.459 86.247,52.052 50,39.369 13.753,52.052 15.478,60.459 50,54.636 " fill="rgb(195, 55, 55)" style="fill: rgb(195, 55, 55);"></polygon></g><g class="ld ld-breath" style="transform-origin: 50px 50px 0px; animation-duration: 1s; animation-delay: -0.666667s; animation-direction: normal;"><path class="st14" d="M23.894,73.425l0.01,0.016l1.209-0.73l1.146,0.634l0.136,0.083c4.226,2.699,9.844,2.698,14.069-0.003 l0.012,0.019l1.239-0.747l1.145,0.667l0.1,0.063l0.001-0.002c4.228,2.702,9.849,2.702,14.075,0l0.022,0.035l1.208-0.751l1.136,0.636 l0.136,0.083c4.226,2.699,9.844,2.698,14.069-0.003l0.012,0.019l1.239-0.747l1.145,0.667l0.1,0.063l0.001-0.002 c1.633,1.044,3.475,1.68,5.364,1.917l3.053-14.883L50,54.636l-34.522,5.823l3.053,14.884C20.42,75.106,22.261,74.47,23.894,73.425z" fill="rgb(51, 51, 51)" style="fill: rgb(51, 51, 51);"></path></g><metadata xmlns:d="https://loading.io/stock/" class="ld ld-breath" style="transform-origin: 50px 50px 0px; animation-duration: 1s; animation-delay: -0.6s; animation-direction: normal;">
        <d:name class="ld ld-breath" style="transform-origin: 50px 50px 0px; animation-duration: 1s; animation-delay: -0.533333s; animation-direction: normal;">ship</d:name>
        <d:tags class="ld ld-breath" style="transform-origin: 50px 50px 0px; animation-duration: 1s; animation-delay: -0.466667s; animation-direction: normal;">freighter,bulk carrier,cargo,goods,commodity,cargolux,ship,business</d:tags>
        <d:license class="ld ld-breath" style="transform-origin: 50px 50px 0px; animation-duration: 1s; animation-delay: -0.4s; animation-direction: normal;">rf</d:license>
        <d:slug class="ld ld-breath" style="transform-origin: 50px 50px 0px; animation-duration: 1s; animation-delay: -0.333333s; animation-direction: normal;">o5uju5</d:slug>
        </metadata></g></g></g></g><style type="text/css" class="ld ld-breath" style="transform-origin: 50px 50px 0px; animation-duration: 1s; animation-delay: -0.266667s; animation-direction: normal;">@keyframes ld-breath {
        0% {
            -webkit-transform: scale(0.86);
            transform: scale(0.86);
        }
        50% {
            -webkit-transform: scale(1.06);
            transform: scale(1.06);
        }
        100% {
            -webkit-transform: scale(0.86);
            transform: scale(0.86);
        }
        }
        @-webkit-keyframes ld-breath {
        0% {
            -webkit-transform: scale(0.86);
            transform: scale(0.86);
        }
        50% {
            -webkit-transform: scale(1.06);
            transform: scale(1.06);
        }
        100% {
            -webkit-transform: scale(0.86);
            transform: scale(0.86);
        }
        }
        .ld.ld-breath {
        -webkit-animation: ld-breath 1s infinite;
        animation: ld-breath 1s infinite;
        }
        </style></svg></svg>